<svg xmlns="http://www.w3.org/2000/svg" viewBox="0 0 162.1 188.83"><defs><style>.cls-1{fill:#f1854f;}.cls-2{fill:#074785;}.cls-3{fill:#f9d555;}.cls-4,.cls-5{fill:#fff;}.cls-5{fill-rule:evenodd;}.cls-6{fill:#ffa4ac;}</style></defs><g id="Layer_2" data-name="Layer 2"><g id="Layer_1-2" data-name="Layer 1"><path class="cls-1" d="M121.07,26.73H41a41,41,0,0,0-41,41v80a41,41,0,0,0,41,41h80a41,41,0,0,0,41-41v-80A41,41,0,0,0,121.07,26.73Z"/><path class="cls-2" d="M121.07,4H41A41,41,0,0,0,0,45V125a41,41,0,0,0,41,41h80a41,41,0,0,0,41-41V45A41,41,0,0,0,121.07,4Z"/><path class="cls-3" d="M121.07,0H41A41,41,0,0,0,0,41v80a41,41,0,0,0,41,41h80a41,41,0,0,0,41-41V41A41,41,0,0,0,121.07,0Z"/><path class="cls-1" d="M24.81,85a56.24,56.24,0,1,1,56.24,56.24A56.24,56.24,0,0,1,24.81,85Z"/><path id="group" class="cls-4" d="M106.33,77.75h-3.25a4,4,0,0,1-3.88-3.63C99.2,63.76,90.85,56,80.41,56H70.89A18.83,18.83,0,0,0,52,74.73V95.31a18.81,18.81,0,0,0,18.88,18.74H91.23a18.78,18.78,0,0,0,18.86-18.74V82C110.09,79.94,108.42,77.75,106.33,77.75Zm-35-7.26h9.68a4.84,4.84,0,0,1,0,9.68H71.37a4.84,4.84,0,0,1,0-9.68Zm19.36,29H71.37a4.84,4.84,0,0,1,0-9.68H90.73a4.84,4.84,0,0,1,0,9.68Z"/><path class="cls-2" d="M19.59,159s0,.08.07.23.11.37.18.65c.14.56.33,1.37.5,2.34.08.48.17,1,.24,1.56s.13,1.15.18,1.77c0,.3,0,.62.06.93s0,.64.05,1c0,.64,0,1.3.06,2s0,1.3,0,1.94l0,.95c0,.31,0,.63,0,.93,0,.61-.09,1.2-.12,1.75s-.09,1.09-.14,1.58c-.1,1-.23,1.79-.33,2.37-.05.28-.1.51-.13.67l-.06.23s0-.08-.07-.23-.11-.37-.18-.65c-.15-.56-.33-1.37-.5-2.34-.09-.49-.17-1-.25-1.58s-.12-1.15-.17-1.76c0-.31,0-.62-.07-.93s0-.64,0-1c0-.64,0-1.29-.05-2s0-1.29,0-1.92l0-.95c0-.31,0-.62.05-.92,0-.61.08-1.2.12-1.76s.08-1.09.13-1.58c.1-1,.23-1.81.33-2.38.05-.29.1-.51.13-.67Z"/><path class="cls-2" d="M33.19,163.33s0,.09.07.25.11.41.18.72c.15.63.33,1.52.5,2.59.09.54.17,1.12.25,1.74s.12,1.27.17,2c0,.33,0,.68.07,1s0,.7,0,1.06c0,.71,0,1.44.05,2.16s0,1.44,0,2.15q0,.53,0,1.05c0,.35,0,.69,0,1,0,.68-.09,1.33-.12,1.95s-.08,1.2-.13,1.74c-.11,1.07-.23,2-.34,2.62,0,.32-.1.57-.13.74s0,.26,0,.26l-.08-.25c0-.17-.11-.41-.18-.72-.14-.63-.32-1.52-.5-2.6-.08-.54-.17-1.12-.24-1.74s-.13-1.28-.18-2c0-.34,0-.69-.06-1s0-.69,0-1.05c0-.71,0-1.43,0-2.16s0-1.42,0-2.13c0-.35,0-.7,0-1s0-.69,0-1c0-.67.09-1.32.12-1.94s.08-1.21.13-1.75c.11-1.09.23-2,.34-2.63.05-.32.1-.57.13-.74S33.19,163.33,33.19,163.33Z"/><path class="cls-2" d="M46.8,164.44a2.29,2.29,0,0,1,.07.25c0,.17.11.41.18.72.14.63.33,1.52.5,2.59.08.54.16,1.12.24,1.73s.13,1.28.18,2c0,.34,0,.69.06,1s0,.7,0,1.06c0,.71,0,1.44.06,2.16s0,1.44,0,2.14l0,1.06c0,.34,0,.69,0,1,0,.68-.09,1.33-.12,1.94s-.09,1.2-.14,1.74c-.1,1.08-.23,2-.33,2.62,0,.32-.11.58-.14.75s0,.26,0,.26,0-.09-.07-.26-.11-.4-.18-.72c-.15-.62-.33-1.51-.5-2.59-.09-.54-.17-1.13-.25-1.75s-.12-1.27-.18-2c0-.33,0-.68-.06-1s0-.7,0-1c0-.71,0-1.44-.05-2.16s0-1.43,0-2.13l0-1.05c0-.34,0-.68.05-1,0-.67.08-1.32.11-1.94s.09-1.21.14-1.76c.1-1.08.23-2,.33-2.62,0-.32.1-.57.13-.74Z"/><path class="cls-2" d="M60.4,164.44a2.29,2.29,0,0,1,.07.25c0,.17.11.41.18.72.15.63.33,1.52.5,2.59.09.54.17,1.12.25,1.73s.12,1.28.17,2c0,.34,0,.69.07,1s0,.7,0,1.06c0,.71,0,1.44.05,2.16s0,1.44,0,2.14c0,.36,0,.71,0,1.06s0,.69,0,1c0,.68-.09,1.33-.12,1.94s-.08,1.2-.14,1.74c-.1,1.08-.22,2-.33,2.62,0,.32-.1.58-.13.75a2,2,0,0,1-.06.26s0-.09-.07-.26-.11-.4-.18-.72c-.14-.62-.33-1.51-.5-2.59-.08-.54-.17-1.13-.25-1.75s-.12-1.27-.17-2c0-.33,0-.68-.06-1s0-.7,0-1c0-.71,0-1.44-.06-2.16s0-1.43,0-2.13q0-.53,0-1.05c0-.34,0-.68,0-1,0-.67.09-1.32.12-1.94s.08-1.21.13-1.76c.11-1.08.23-2,.33-2.62,0-.32.11-.57.14-.74S60.4,164.44,60.4,164.44Z"/><path class="cls-2" d="M74,164.44l.07.25c0,.17.11.41.18.72.14.63.32,1.52.5,2.59.08.54.16,1.12.24,1.73s.13,1.28.18,2l.06,1c0,.35,0,.7.05,1.06,0,.71,0,1.44.06,2.16s0,1.44,0,2.14c0,.36,0,.71,0,1.06s0,.69,0,1c0,.68-.08,1.33-.12,1.94s-.08,1.2-.13,1.74c-.1,1.08-.23,2-.33,2.62-.05.32-.11.58-.14.75s-.05.26-.05.26,0-.09-.07-.26-.11-.4-.18-.72c-.15-.62-.33-1.51-.5-2.59-.09-.54-.17-1.13-.25-1.75s-.13-1.27-.18-2c0-.33,0-.68-.06-1s0-.7,0-1c0-.71,0-1.44,0-2.16s0-1.43,0-2.13l0-1.05c0-.34,0-.68,0-1,0-.67.09-1.32.12-1.94s.09-1.21.14-1.76c.1-1.08.22-2,.33-2.62.05-.32.1-.57.13-.74A2,2,0,0,1,74,164.44Z"/><path class="cls-2" d="M87.61,164.44a2.29,2.29,0,0,1,.07.25c0,.17.11.41.18.72.15.63.33,1.52.5,2.59.08.54.17,1.12.24,1.73s.13,1.28.18,2c0,.34,0,.69.07,1s0,.7,0,1.06c0,.71,0,1.44.06,2.16s0,1.44,0,2.14c0,.36,0,.71,0,1.06s0,.69,0,1c0,.68-.09,1.33-.12,1.94s-.09,1.2-.14,1.74c-.1,1.08-.22,2-.33,2.62,0,.32-.1.58-.13.75l-.06.26s0-.09-.07-.26-.11-.4-.18-.72c-.15-.62-.33-1.51-.5-2.59-.08-.54-.17-1.13-.25-1.75s-.12-1.27-.17-2c0-.33,0-.68-.06-1s0-.7,0-1c0-.71,0-1.44-.06-2.16s0-1.43,0-2.13q0-.53,0-1.05c0-.34,0-.68,0-1,0-.67.09-1.32.12-1.94s.08-1.21.13-1.76c.1-1.08.23-2,.33-2.62,0-.32.11-.57.14-.74S87.61,164.44,87.61,164.44Z"/><path class="cls-2" d="M101.22,164.44l.07.25c0,.17.11.41.18.72.14.63.32,1.52.49,2.59.09.54.17,1.12.25,1.73s.13,1.28.18,2l.06,1c0,.35,0,.7,0,1.06,0,.71,0,1.44.06,2.16s0,1.44,0,2.14c0,.36,0,.71,0,1.06s0,.69,0,1c0,.68-.09,1.33-.12,1.94s-.08,1.2-.13,1.74c-.1,1.08-.23,2-.33,2.62,0,.32-.11.58-.14.75s0,.26,0,.26,0-.09-.07-.26-.11-.4-.19-.72c-.14-.62-.32-1.51-.49-2.59-.09-.54-.17-1.13-.25-1.75s-.13-1.27-.18-2c0-.33,0-.68-.06-1s0-.7,0-1c0-.71,0-1.44,0-2.16s0-1.43,0-2.13c0-.35,0-.7,0-1.05s0-.68,0-1c0-.67.09-1.32.12-1.94s.09-1.21.14-1.76c.1-1.08.22-2,.33-2.62,0-.32.1-.57.13-.74A2,2,0,0,1,101.22,164.44Z"/><path class="cls-2" d="M114.82,164.44a2.29,2.29,0,0,1,.07.25c0,.17.11.41.18.72.15.63.33,1.52.5,2.59.08.54.17,1.12.24,1.73s.13,1.28.18,2c0,.34.05.69.06,1s0,.7,0,1.06c0,.71.05,1.44.06,2.16s0,1.44,0,2.14l0,1.06c0,.34,0,.69,0,1,0,.68-.09,1.33-.12,1.94s-.09,1.2-.14,1.74c-.1,1.08-.22,2-.33,2.62,0,.32-.1.58-.13.75l-.06.26s0-.09-.07-.26-.11-.4-.18-.72c-.15-.62-.33-1.51-.5-2.59-.09-.54-.17-1.13-.25-1.75s-.12-1.27-.17-2c0-.33,0-.68-.07-1s0-.7,0-1c0-.71,0-1.44-.06-2.16s0-1.43,0-2.13l0-1.05c0-.34,0-.68,0-1,0-.67.09-1.32.12-1.94s.08-1.21.13-1.76c.1-1.08.23-2,.33-2.62.05-.32.11-.57.14-.74S114.82,164.44,114.82,164.44Z"/><path class="cls-2" d="M128.42,163.33s0,.09.07.25.11.41.18.72c.15.63.33,1.52.5,2.59.09.54.17,1.12.25,1.74s.12,1.27.17,2c0,.33,0,.68.07,1s0,.7.05,1.06c0,.71,0,1.44,0,2.16s0,1.44,0,2.15q0,.53,0,1.05c0,.35,0,.69,0,1,0,.68-.09,1.33-.12,1.95s-.08,1.2-.13,1.74c-.11,1.07-.23,2-.33,2.62-.06.32-.11.57-.14.74s-.05.26-.05.26l-.08-.25c0-.17-.11-.41-.18-.72-.14-.63-.32-1.52-.5-2.6-.08-.54-.17-1.12-.24-1.74s-.13-1.28-.18-2c0-.34,0-.69-.06-1s0-.69,0-1.05c0-.71,0-1.43-.05-2.16s0-1.42,0-2.13c0-.35,0-.7,0-1s0-.69,0-1c0-.67.09-1.32.12-1.94s.09-1.21.13-1.75c.11-1.09.23-2,.34-2.63,0-.32.1-.57.13-.74S128.42,163.33,128.42,163.33Z"/><path class="cls-2" d="M142,159s0,.08.07.23.11.37.18.65c.14.56.33,1.37.5,2.34.08.48.17,1,.24,1.56s.13,1.15.18,1.77c0,.3,0,.62.06.93s0,.64.05,1c0,.64,0,1.3.06,2s0,1.3,0,1.94l0,.95c0,.31,0,.63,0,.93,0,.61-.09,1.2-.12,1.75s-.09,1.09-.14,1.58c-.1,1-.23,1.79-.33,2.37,0,.28-.1.51-.14.67s-.05.23-.05.23,0-.08-.07-.23-.11-.37-.18-.65c-.15-.56-.33-1.37-.5-2.34-.09-.49-.17-1-.25-1.58s-.12-1.15-.17-1.76c0-.31-.05-.62-.07-.93s0-.64-.05-1c0-.64,0-1.29-.05-2s0-1.29,0-1.92l0-.95c0-.31,0-.62,0-.92,0-.61.08-1.2.12-1.76s.08-1.09.13-1.58c.1-1,.23-1.81.33-2.38,0-.29.1-.51.13-.67Z"/><path class="cls-2" d="M155.63,146.08a1.8,1.8,0,0,1,.07.22c0,.14.11.35.18.62.15.55.33,1.32.5,2.25.09.46.17,1,.25,1.5s.12,1.11.17,1.69c0,.3,0,.6.07.9s0,.61,0,.92c0,.62,0,1.25.05,1.88s0,1.25,0,1.86c0,.31,0,.61,0,.91s0,.6,0,.89c0,.58-.09,1.16-.12,1.69s-.08,1-.13,1.51c-.11.93-.23,1.72-.34,2.27-.05.28-.1.49-.13.64a1.64,1.64,0,0,1-.06.23l-.07-.22c0-.14-.11-.35-.18-.62-.14-.54-.33-1.32-.5-2.26-.08-.46-.17-1-.24-1.51s-.13-1.11-.18-1.69c0-.3,0-.59-.06-.9s0-.6,0-.91c0-.62,0-1.25-.06-1.87s0-1.24,0-1.85c0-.31,0-.61,0-.91s0-.6,0-.89c0-.58.09-1.14.12-1.68s.08-1.05.13-1.53c.11-.94.23-1.73.33-2.28.05-.27.11-.49.14-.64S155.63,146.08,155.63,146.08Z"/><path class="cls-2" d="M6,146.08s0,.07.08.22.11.35.18.62c.14.55.32,1.32.49,2.25.09.46.17,1,.25,1.5s.12,1.11.18,1.69l.06.9c0,.3,0,.61,0,.92,0,.62,0,1.25.05,1.88s0,1.25,0,1.86c0,.31,0,.61,0,.91s0,.6,0,.89c0,.58-.09,1.16-.12,1.69s-.08,1-.13,1.51c-.1.93-.23,1.72-.33,2.27-.06.28-.11.49-.14.64s0,.23,0,.23,0-.07-.08-.22-.11-.35-.18-.62c-.14-.54-.32-1.32-.5-2.26-.08-.46-.16-1-.24-1.51s-.13-1.11-.18-1.69l-.06-.9c0-.3,0-.6-.05-.91,0-.62,0-1.25,0-1.87s0-1.24,0-1.85c0-.31,0-.61,0-.91s0-.6,0-.89c0-.58.09-1.14.12-1.68s.09-1.05.14-1.53c.1-.94.22-1.73.33-2.28,0-.27.1-.49.13-.64S6,146.08,6,146.08Z"/><path class="cls-2" d="M87.64,10.91a1.78,1.78,0,0,0-3.55,0c0,2.34.73,9.28-3.39,8.62C77.45,19,78,13.51,78,11.14a1.78,1.78,0,0,0-3.56,0c0,4.32,0,11,5.56,11.86a5.91,5.91,0,0,0,6.63-3.54C87.78,16.76,87.64,13.78,87.64,10.91Z"/><path class="cls-2" d="M59.72,16.14A6.93,6.93,0,1,1,52.8,9.21,6.92,6.92,0,0,1,59.72,16.14Z"/><path class="cls-2" d="M116.23,16.14a6.93,6.93,0,1,1-6.93-6.93A6.92,6.92,0,0,1,116.23,16.14Z"/><path class="cls-1" d="M29.77,135.54c-.58-.57-1.75-8.47-2.81-8.4s-2,7.9-2.48,8.41c-1,1-8.28,1.77-8.22,2.78s7.21,1.47,8.22,2.45c.57.55,1.75,8.47,2.81,8.41s2-7.88,2.49-8.41c1-1,8.3-1.78,8.24-2.78S30.75,136.48,29.77,135.54Z"/><path class="cls-1" d="M137.74,24.74c-.58-.56-1.75-8.47-2.81-8.4s-2,7.9-2.49,8.41c-1,1-8.28,1.77-8.22,2.78S131.44,29,132.44,30c.57.55,1.76,8.47,2.82,8.41s2-7.88,2.48-8.41c1-1,8.31-1.78,8.25-2.78S138.71,25.68,137.74,24.74Z"/><path class="cls-5" d="M155.29,46.23c.39-4.83-7.1-5.43-7.49-.6S154.91,51.06,155.29,46.23Z"/><path class="cls-5" d="M155.21,103.61c.13-14.47-.05-28.94.08-43.41,0-4.73-7.3-4.8-7.34-.07-.13,14.47,0,28.94-.08,43.41C147.82,108.27,155.16,108.35,155.21,103.61Z"/><path class="cls-5" d="M155.31,118.17c.38-4.72-6.94-5.31-7.32-.59S154.93,122.89,155.31,118.17Z"/><path class="cls-5" d="M14.28,47.85c.37-4.54-6.67-5.1-7-.57S13.92,52.39,14.28,47.85Z"/><path class="cls-5" d="M14.2,101.73c.12-13.59,0-27.17.08-40.76,0-4.45-6.86-4.51-6.9-.07-.12,13.59,0,27.18-.07,40.76C7.27,106.11,14.16,106.17,14.2,101.73Z"/><path class="cls-5" d="M14.3,115.4c.35-4.44-6.52-5-6.88-.55S13.94,119.83,14.3,115.4Z"/><path class="cls-4" d="M128,146c.24-.45.57-1,.82-1.44.83-1.4,1.33-2.29,1.31-2.86,0-.3-.24-.63-1.16-1.93-.44-.63-1.17-1.65-1.53-2.3.66.29,1.7.89,2.34,1.26,1.35.78,1.82,1,2.15,1h0c.54,0,1.31-.56,2.63-1.52.43-.31,1-.71,1.42-1-.24.47-.59,1.06-.85,1.51-.82,1.38-1.32,2.26-1.29,2.81,0,.31.23.65,1.17,2,.44.61,1.15,1.61,1.51,2.26-.67-.3-1.73-.91-2.37-1.28-1.41-.81-1.8-1-2.12-1h0a7,7,0,0,0-2.67,1.54C128.91,145.34,128.39,145.73,128,146Z"/><path class="cls-4" d="M20.33,34.41c.23-.45.56-1,.82-1.44.82-1.4,1.33-2.29,1.3-2.86,0-.3-.23-.63-1.15-1.93-.45-.62-1.18-1.65-1.54-2.3a26.35,26.35,0,0,1,2.34,1.26c1.36.78,1.82,1,2.15,1h0c.55,0,1.32-.56,2.64-1.52.42-.31,1-.71,1.41-1-.23.47-.58,1.06-.85,1.51A7.18,7.18,0,0,0,26.19,30c0,.32.24.66,1.18,2,.43.61,1.15,1.61,1.51,2.26-.67-.3-1.73-.91-2.38-1.28-1.41-.81-1.8-1-2.11-1h0a7,7,0,0,0-2.67,1.54C21.28,33.76,20.75,34.14,20.33,34.41Z"/><path class="cls-1" d="M49.07,138.16l.54.38c.35.26.86.64,1.53,1.07.34.22.69.48,1.11.72l1.32.8,1.54.84c.56.27,1.13.59,1.74.87s1.25.59,1.93.85l1,.42,1.07.39c.72.28,1.47.51,2.24.77l1.17.35c.4.12.79.23,1.2.33,1.62.45,3.32.78,5,1.1s3.51.51,5.29.66,3.57.2,5.33.21,3.5-.07,5.18-.21c.42,0,.83-.08,1.24-.12l1.22-.13c.81-.11,1.6-.2,2.36-.34.38-.06.76-.11,1.13-.18l1.09-.21c.72-.12,1.4-.3,2.06-.44s1.29-.32,1.89-.47l1.7-.48c1-.34,2-.62,2.73-.91s1.34-.49,1.74-.65l.62-.24-.54.38c-.36.24-.88.62-1.59,1s-1.56.9-2.57,1.4l-1.65.76c-.59.23-1.21.5-1.86.74-1.32.47-2.77.95-4.33,1.34-.78.21-1.59.37-2.42.55-.41.09-.83.15-1.26.22s-.85.15-1.29.21l-1.32.17-1.34.13c-.9.09-1.82.12-2.74.16a55.25,55.25,0,0,1-5.6-.14,53.52,53.52,0,0,1-5.56-.79c-.45-.08-.9-.19-1.35-.29s-.89-.2-1.33-.33l-1.3-.35-1.28-.41c-.42-.13-.83-.28-1.23-.43s-.81-.29-1.21-.45c-.78-.34-1.55-.63-2.28-1L59,145.9l-1-.55c-.33-.18-.66-.36-1-.55l-.92-.57c-.59-.37-1.14-.76-1.67-1.12L53,142c-.44-.37-.84-.72-1.2-1s-.69-.66-1-.94c-.6-.55-1-1.05-1.29-1.37Z"/><path class="cls-6" d="M46.18,47.74l-.42.5-.51.59c-.2.23-.4.51-.65.81s-.52.63-.79,1-.6.77-.89,1.23c-.62.89-1.29,1.9-2,3-.17.28-.35.57-.52.87l-.51.92c-.35.62-.68,1.28-1,2-.67,1.35-1.35,2.79-2,4.32-.33.75-.62,1.54-.93,2.33l-.43,1.2c-.08.2-.15.4-.22.6l-.21.62c-.56,1.63-1.06,3.32-1.52,5s-.85,3.41-1.22,5.11-.64,3.37-.88,5S31.1,86.09,31,87.6c0,.38-.07.75-.1,1.12s0,.73-.07,1.09c-.06.71-.06,1.4-.1,2.07s0,1.3-.05,1.91,0,1.18,0,1.72c0,1.09,0,2,.1,2.82s.08,1.4.12,1.82,0,.65,0,.65l-.2-.62c-.12-.41-.33-1-.51-1.77s-.41-1.71-.61-2.8c-.09-.54-.19-1.12-.27-1.74s-.17-1.27-.23-2c-.11-1.36-.21-2.84-.2-4.4s.05-3.22.19-4.93c0-.43.08-.86.13-1.29s.1-.87.15-1.3c.1-.88.26-1.76.4-2.64.32-1.77.71-3.56,1.18-5.33s1-3.51,1.67-5.19A51.11,51.11,0,0,1,34.7,62a47.55,47.55,0,0,1,2.39-4.33c.44-.66.83-1.31,1.27-1.91l.64-.89.64-.83a35.22,35.22,0,0,1,2.46-2.81l.28-.3.29-.27.55-.51c.34-.33.68-.62,1-.88a18.25,18.25,0,0,1,1.44-1.13Z"/><path class="cls-6" d="M131.85,77.65s-.07-.22-.18-.63q-.09-.3-.21-.75c-.09-.29-.21-.62-.32-1s-.24-.78-.42-1.22-.31-.92-.53-1.42c-.4-1-.87-2.12-1.45-3.31l-.43-.91-.49-.94c-.32-.63-.69-1.27-1.06-1.93-.75-1.31-1.58-2.67-2.5-4-.46-.69-1-1.37-1.43-2.06l-.77-1-.38-.52-.39-.51c-1.06-1.37-2.18-2.72-3.34-4s-2.38-2.59-3.58-3.83-2.46-2.4-3.7-3.5-2.44-2.14-3.63-3.08l-.88-.7-.87-.66c-.56-.45-1.13-.83-1.67-1.23s-1.07-.74-1.56-1.09-1-.65-1.44-1c-.92-.57-1.72-1.09-2.4-1.48s-1.21-.7-1.58-.9l-.57-.33.63.18c.4.12,1,.28,1.75.55s1.65.6,2.67,1l1.61.73c.55.28,1.14.57,1.74.9,1.2.65,2.49,1.39,3.79,2.26s2.65,1.83,4,2.89l1,.81c.34.27.67.57,1,.85.68.57,1.32,1.18,2,1.79,1.3,1.25,2.58,2.56,3.79,3.93s2.36,2.8,3.4,4.26a48.67,48.67,0,0,1,2.9,4.43,46.15,46.15,0,0,1,2.28,4.39c.31.72.64,1.41.89,2.11.13.35.27.69.39,1l.34,1a33.74,33.74,0,0,1,1,3.61l.09.4c0,.13,0,.26.07.39s.09.5.13.74c.08.47.13.91.18,1.31a17.64,17.64,0,0,1,.14,1.83C131.84,77.42,131.85,77.65,131.85,77.65Z"/></g></g></svg>