<svg xmlns="http://www.w3.org/2000/svg" viewBox="0 0 2349.27 1690.86"><defs><style>.cls-1{fill:#ebf3fa;}.cls-2{opacity:0.8;}.cls-3{fill:#d7e5ff;}.cls-4{fill:#aec3ff;}.cls-5{fill:#a8d29f;}.cls-6{fill:#ffb27d;}.cls-7{fill:#739af0;}.cls-8{fill:#1c3154;}.cls-9{fill:#2a4e96;}.cls-10{fill:#233862;}.cls-11{fill:#6385db;}.cls-12{fill:#ed985f;}.cls-13{fill:#2c3a64;}.cls-14{fill:#f99746;}.cls-15{fill:#ed7d2b;}.cls-16{fill:#7599ea;}.cls-17{fill:#90aff4;}.cls-18,.cls-19{fill:#5888dd;}.cls-19{opacity:0.4;}.cls-20{fill:#607cf4;}.cls-21{fill:#e9f3fe;}.cls-22{fill:#f77d48;}.cls-23{fill:#e6efff;}.cls-24{fill:#113c68;}.cls-25{fill:#15447c;}.cls-26{fill:#fca56b;}.cls-27{fill:#163560;}.cls-28{fill:#1f4d84;}.cls-29{opacity:0.5;}.cls-30{fill:#b3cff9;}.cls-31{fill:#ed975d;}.cls-32{fill:#fff;}.cls-33{fill:#1f447f;}.cls-34{fill:#b5453c;}.cls-35{fill:#e8945b;}</style></defs><g id="Layer_2" data-name="Layer 2"><g id="_лой_1" data-name="‘лой_1"><path class="cls-1" d="M2247.9,1687.13c-148.18,0-2151.66-4.33-2151.66-4.57-.83-1.94-254.33-312.65,64.88-637.5,158.17-161-145.25-369.49,0-548.53,248.81-306.7,495-134,700.08-220.23,36.23-15.23,72.59-39.73,109-77.34a405.23,405.23,0,0,1,67-55.61q5.52-3.69,11.17-7.19A445.74,445.74,0,0,1,1093,111.9q15.49-7.31,31.56-13.51h0a517.82,517.82,0,0,1,52.31-17,592.66,592.66,0,0,1,78-15.31q17.4-2.26,35.09-3.57c229.15-17.23,487,79.67,620.12,221.29,26.8,28.52,148.64,176.09,52.59,378.91-60.64,128.06,193.4,250.37,283.67,396.6C2475.92,1431.07,2250,1682.28,2247.9,1687.13Z"/><g class="cls-2"><path class="cls-3" d="M1729.4,822.71a294.12,294.12,0,0,1-22.35,47.71A291.41,291.41,0,0,1,1356.12,997c-111.75-40.62-183.53-142.5-191.18-254a288.14,288.14,0,0,1,.37-44.44,293.21,293.21,0,0,1,43.94-130.89c.12-.21.24-.39.37-.6a291.94,291.94,0,0,1,166.06-124q10.66-3.06,21.59-5.3a289.7,289.7,0,0,1,157.88,11.65q10.45,3.79,20.41,8.3a289,289,0,0,1,118.07,97.48h0a292.61,292.61,0,0,1,46.59,105.72q2.67,12.21,4.32,24.68a289.88,289.88,0,0,1-15.16,137.11Z"/><path class="cls-4" d="M1407.17,566.84c-17.21,13.33-12.65,49-42.45,28.89s-48.5-31-56.93-13.49,18,27.15,11,46.27-21.09,21.14-36,5.44-15.34-30.81-39.49-30.31-34.45-9.43-33.27-27.56a25.73,25.73,0,0,0-.79-8.4c.12-.21.24-.39.37-.6a291.94,291.94,0,0,1,166.06-124q10.66-3.06,21.59-5.3c8.42,3.42,17.44,10.36,22.23,24.29,10.51,30.63,27.56,23.42,13.08,49.08s-8.52,32,7.28,36.66,34,11.33,31.54,23.83S1424.38,553.51,1407.17,566.84Z"/><path class="cls-4" d="M1729.4,822.71a294.12,294.12,0,0,1-22.35,47.71,289.65,289.65,0,0,1-81.39,89.32A33.23,33.23,0,0,1,1604,951.2c-29.17-26.07,9.49-53.76,29.85-67.23s-17.44-17.94-36.5-44.19,25.56-61.83-3.11-63.75-63.56-3.78-69.4-34.5,24.33-24.4,19-50.28,19.67-30.73,46.36-23.34,30-12.3,63.07-3.36,17.51,49.65,54,59.83,31.92,17.79,31.92,17.79a17.55,17.55,0,0,1,6.85,4.25A292.15,292.15,0,0,1,1729.4,822.71Z"/><path class="cls-4" d="M1744.56,685.6c-34.75,3.64-32.4-39.74-61.9-37.17-29.75,2.59-17-18.56-31.74-40.41s-64.39-10-54.3-32.1,37.81-4.81,50.81-20.7,40.47-.74,40.47-.74a20.7,20.7,0,0,1,5.73.72h0a292.61,292.61,0,0,1,46.59,105.72Q1742.91,673.13,1744.56,685.6Z"/><path class="cls-4" d="M1524.36,516.67s23.59-16.71,1.41-32.23-24.87-6.73-43.25-15.72-31.27,3.08-22.8,24.45,8.8,56.6,27.78,44.79S1508.53,512.72,1524.36,516.67Z"/></g><path class="cls-5" d="M162.41,1683.39H264c5.44-4.61-3.77-15.1-13.4-15.81-4.18-.31-9.46.56-15.5,1.84-1.4-18.57-9.39-102.05-39.48-98.69-33.83,3.75,0,36.76,9.57,56.3,7.08,14.47,14.56,35.23,18,45-2.74.59-5.59,1.18-8.49,1.71-4.49-13.77-21.17-60.08-42.39-57.39-24.91,3.16-14.9,21.73,2.76,32.76,12.95,8.1,28.86,19.62,36.42,25.19a108.21,108.21,0,0,1-19.87,1.59C174.2,1675.51,165.7,1680.64,162.41,1683.39Z"/><path class="cls-5" d="M1779.31,1683.39h-94.37c-5-4.28,3.5-14,12.44-14.68,3.89-.3,8.8.52,14.41,1.7,1.29-17.25,8.71-94.78,36.66-91.67,31.42,3.49,0,34.15-8.89,52.3-6.58,13.44-13.52,32.72-16.69,41.82,2.55.56,5.19,1.1,7.89,1.59,4.17-12.79,19.66-55.8,39.37-53.3,23.14,2.94,13.84,20.19-2.56,30.42-12,7.53-26.81,18.23-33.83,23.4a100.1,100.1,0,0,0,18.46,1.48C1768.36,1676.07,1776.25,1680.83,1779.31,1683.39Z"/><path class="cls-6" d="M1846.7,1064.81s2.25-22.34-9.43-21.57-14.78,6.12-13.47,10.42,12.67,18.49,12.67,18.49Z"/><path class="cls-7" d="M2028.73,1109.58s-12.93,15.19-40.74,32.73c-2.64,1.66-5.39,3.34-8.3,5a308.8,308.8,0,0,1-38.1,18.74c-1.61.66-3.5,1.39-5.62,2.16-16.67,6-47.33,14.55-66.34,15.31-1.65.07-3.22.07-4.68,0-28.92-1.16-32.45-113.42-32.45-113.42s3.22-11.23,18.08-8.4c0,0,22.57,63.39,30.66,68.56,7.18,4.59,48.47-58,84-62.37C1989.17,1065,2028.73,1109.58,2028.73,1109.58Z"/><path class="cls-8" d="M1951,1657s2.13,24.71-3.09,27.28l-66.85-.14s0-7.71,10.74-9.43,29.6-8,32.79-22S1951,1657,1951,1657Z"/><path class="cls-9" d="M1902,1357.91c.33,16.16,1.11,32.83,2.63,47.81,7.22,71.08,9.75,157,10.79,173.52,1.8,28.74,7.48,74.66,7.48,74.66s11.26,10.69,33.21,5.58c0,0,18.19-66.13,22.25-135.77.07-1.14.13-2.29.19-3.44.47-9.2,1-19.73,1.47-31.08,3.34-76,7-189,7-189l-83.88-19.69S1901.13,1317.63,1902,1357.91Z"/><path class="cls-10" d="M1902,1357.91c21.26,36.68,61.78,104.26,78,131.28,3.34-76,7-189,7-189l-83.88-19.69S1901.13,1317.63,1902,1357.91Z"/><path class="cls-11" d="M1936,1168.24c-16.67,6-47.33,14.55-66.34,15.31,2.91-.54,24.07-4.73,31.9-14.18,8.4-10.16,22.55-37.74,33.81-26.49C1940.64,1148.19,1939.08,1158.66,1936,1168.24Z"/><path class="cls-6" d="M2076.93,1346s5.2,20.42,4.35,25-5.94,19.9-9.11,23.72-3.3-16.58-5.4-19.78-1,7.61-2.66,8.5-4.51-8.19-5.76-11.41,4.5-14.42,5-22.45S2076.93,1346,2076.93,1346Z"/><path class="cls-8" d="M2117.56,1628.91s11.9,10.86,9.58,18.58-13.06,12.85-14.51,22.28-7.26,14.58-12.48,14.58h-24.91s-3.84-6.64,5.44-8.64,12.79-13.08,12.21-23.37.87-24,.87-24l19.74-4.57Z"/><path class="cls-9" d="M1916.28,1301.92s78.52,168,120.31,241.75,54.85,94.29,54.85,94.29,23.94-9.43,26.12-15.86c0,0-16-142.32-44-177-15.81-19.6-34.39-78.43-35.26-99s-19.21-69.68-19.21-69.68Z"/><path class="cls-7" d="M1901.64,1293.18s25.57,27.52,69,35.83c19.06,3.65,57.77,7.18,67.37-6.4,2.26-3.19,2.28-7.91,1.78-15.27-1.3-19.16-6.11-56.18,15.64-130.59a127.3,127.3,0,0,0,4.18-19.89c4.75-38.07,4.23-66.8-28.8-82.15-49.48-23-69.79-4.08-69.79-4.08s-26.32,12.3-38.35,48.14C1898.65,1190.46,1901.64,1293.18,1901.64,1293.18Z"/><path class="cls-6" d="M2001.14,1068.39a36.76,36.76,0,0,1-37,2.42c-1.07-.54-.94-7.93-.67-15.19s.94-14.12.94-14.12l17.61-11.56,16.8-11C1996.83,1056.83,2004.9,1065.7,2001.14,1068.39Z"/><path class="cls-12" d="M1995.89,1034.57s-11.42,17.15-32.39,21c.27-7.13,1-15,1-15l17.52-10.7Z"/><path class="cls-6" d="M1948.67,1037.05s42.6,15.89,52.08-10.35,21.36-41.88-5.44-53.14-35.73-3.13-41.06,4.86S1937.83,1032.23,1948.67,1037.05Z"/><path class="cls-13" d="M2027.29,976.51c.49-.37,1.48-.56,3.55-.27a8.44,8.44,0,0,0-3.62-1.84c.14-2.93-.38-8.28-5-10.48a6.29,6.29,0,0,1,2.11,5c-4.53-7-15.88-13.62-50.14-17.62-45.16-5.28-36.13,26.09-31,30.62s21.41-1.91,32,1.06,9.53,18.87,12.75,21.71,2.53-1.19,7.89-2.45,4.22,7,1.75,12,2.92,13.36,2.92,13.36l8.28-6c8.29-6,20.9-35.92,19.1-43.18C2027.6,977.82,2027.45,977.17,2027.29,976.51Z"/><path class="cls-11" d="M2039.82,1307.34c-1.3-19.16-6.11-56.18,15.64-130.59a127.3,127.3,0,0,0,4.18-19.89h0c-16.16-5.33-45.6,6.52-45.6,6.52S2007.11,1261.74,2039.82,1307.34Z"/><path class="cls-7" d="M2039.75,1079.68s19.89,7.23,32.57,59.88c8.38,34.78,23.81,85.91,25.55,102s-17.64,110.13-17.64,110.13-2.73,2-9.43.65a15.54,15.54,0,0,1-9.39-5.62s-4.63-62.69-3.44-92.29c.5-12.3-56.93-90.07-87.92-100.09C1957.87,1150.38,2039.75,1079.68,2039.75,1079.68Z"/><path class="cls-4" d="M1761.63,1011.53s57.47-1.63,123.79,10.58l6.93-17.46,7.6-19.13s-66.58-28.67-106.61-68.58Z"/><path class="cls-14" d="M1794.25,916l-33,97.4h0a8.76,8.76,0,0,1-5.78-11.35l29-81.84a7.24,7.24,0,0,1,9.73-4.21Z"/><path class="cls-14" d="M1825.75,1084h0a11.93,11.93,0,0,0,14-9.33l11.36-56.85a11.94,11.94,0,0,0-9.33-14h0a11.93,11.93,0,0,0-14,9.34L1816.42,1070A11.93,11.93,0,0,0,1825.75,1084Z"/><path class="cls-7" d="M1761.63,1011.53s57.47-1.63,123.79,10.58l6.93-17.46C1830,991.92,1761.63,1011.53,1761.63,1011.53Z"/><path class="cls-14" d="M1867.08,1018.6l18,3.16c-.27,0,16.68,3.29,22.24-11.73a12.29,12.29,0,0,0,1.07-3.25c4.32-18.73-6-22.18-6-22.18l-23.11-9-7.34,26v.09Z"/><path class="cls-15" d="M1867.08,1018.6l18,3.16c-.27,0,16.68,3.29,22.24-11.73-10.16-7.39-35.35-8.45-35.35-8.45v.09Z"/><path class="cls-6" d="M1827.28,1029s8.79,3.5,7.18,7.37-12.78,9.19-14.55,6.14S1821.76,1025.72,1827.28,1029Z"/><path class="cls-6" d="M1846.87,1061.29a122.56,122.56,0,0,0,1.76-13.11c.11-4.13.59-7.5-.38-7.62s-1.68.64-2.07,2-1.92,9.56-1.92,9.56l.77,8Z"/><path class="cls-16" d="M978,1055.43l-49.77,591.8s-5.22,35.87,21.46,35.94c43.88.1,218.38,0,218.38,0s-33-7.47-32.62-24.27c.47-19.81,58.17-609.07,58.17-609.07Z"/><path class="cls-17" d="M1184.45,1672.67c-8.63,0-177.57.31-220.3-.24-18.62-.23-21.88-16.56-22-27.12a53.46,53.46,0,0,1,.57-8.81l1.29-15.38,3.3-39.21,2.91-34.63,3.75-44.51,3.15-37.57,35.37-420.52,215.63-5.59s-24.31,246.6-41.5,426.11c-1.92,20-3.74,39.18-5.43,57.08q-.83,8.58-1.58,16.75c-1.6,17-3.06,32.58-4.32,46.35-.67,7.25-1.29,14-1.85,20.18-2.19,24.2-3.47,39.66-3.49,42.6a24.13,24.13,0,0,0,.42,4.79C1153.87,1671.81,1181.21,1672.67,1184.45,1672.67Z"/><polygon class="cls-4" points="454.29 733.39 575.52 1220.37 592.12 1287.07 648.59 1513.89 1697.64 1513.89 1489.51 733.39 454.29 733.39"/><polygon class="cls-17" points="454.29 733.39 437.48 738.99 626.25 1530.83 648.59 1513.89 454.29 733.39"/><polygon class="cls-16" points="626.25 1530.83 1668.84 1530.83 1697.63 1513.89 648.59 1513.89 626.25 1530.83"/><rect class="cls-4" x="992.38" y="1672.67" width="225.74" height="10.73" transform="translate(2210.49 3356.06) rotate(180)"/><polygon class="cls-18" points="1160.73 1530.82 1159.57 1539.03 947.27 1581.91 950.18 1547.28 951.57 1530.82 1160.73 1530.82"/><path class="cls-19" d="M1184.45,1672.67c-8.63,0-177.57.31-220.3-.24-18.62-.23-21.88-16.56-22-27.12l211.29-39.75c-2.19,24.2-3.47,39.66-3.49,42.6a24.13,24.13,0,0,0,.42,4.79C1153.87,1671.81,1181.21,1672.67,1184.45,1672.67Z"/><polygon class="cls-4" points="454.29 733.39 1489.51 733.39 1657.48 1360.66 610.45 1360.66 454.29 733.39"/><polygon class="cls-7" points="1608.65 1333.48 639.36 1333.48 604.73 1195.5 591.33 1142.11 585.86 1120.34 550.26 978.54 548.42 971.15 529.6 896.2 521.18 862.66 514 834.05 497.17 766.99 1452.48 766.99 1470.97 834.05 1478.85 862.66 1488.1 896.2 1549.01 1117.14 1549.01 1117.15 1554.17 1135.87 1556.57 1144.56 1598.62 1297.1 1608.65 1333.48"/><polygon class="cls-20" points="1470.97 834.06 514 834.06 497.17 766.99 1452.48 766.99 1470.97 834.06"/><path class="cls-21" d="M536.69,797.3c-1.16-4.63,1.66-8.38,6.29-8.38a11.46,11.46,0,0,1,10.48,8.38c1.15,4.63-1.67,8.38-6.3,8.38A11.44,11.44,0,0,1,536.69,797.3Z"/><path class="cls-21" d="M564.55,797.3c-1.16-4.63,1.66-8.38,6.29-8.38a11.46,11.46,0,0,1,10.48,8.38c1.15,4.63-1.67,8.38-6.3,8.38A11.44,11.44,0,0,1,564.55,797.3Z"/><path class="cls-21" d="M594.54,797.3c-1.15-4.63,1.67-8.38,6.3-8.38a11.44,11.44,0,0,1,10.47,8.38c1.16,4.63-1.66,8.38-6.29,8.38A11.46,11.46,0,0,1,594.54,797.3Z"/><path class="cls-22" d="M1262.45,377.08c39.17-46,99.59-138.39,140.26-185.71a15,15,0,0,0-11.43-24.77h-74L1387.08,8.74c3-6.74-6.2-12.11-10.62-6.2l-168.8,225.92a9.34,9.34,0,0,0,8.63,14.86L1300.08,233l-49.85,136.93C1247.49,377.48,1257.25,383.19,1262.45,377.08Z"/><path class="cls-4" d="M914,657.25c8.82-45.21,14.38-129.17,23.69-175.81a11.43,11.43,0,0,0-16.85-12.18l-49.16,27.68L859,366c-.54-5.59-8.65-5.73-9.37-.15L822,579a7.12,7.12,0,0,0,11.29,6.64l51.79-38.19,18.11,109.6C904.2,663.11,912.82,663.25,914,657.25Z"/><path class="cls-23" d="M1651,1346.83l-842.23,71c-64,5.39-110.23-59.81-84-118.4l356.82-798.57c27.07-60.59,110.28-67.6,147.11-12.4L1714.05,1216C1749.66,1269.42,1714.94,1341.44,1651,1346.83Z"/><path class="cls-22" d="M1653.68,1378.69l-842.24,71a116.28,116.28,0,0,1-115.92-163.3l356.83-798.58c17.53-39.24,53.57-64.82,96.39-68.43s82.64,15.59,106.49,51.34l485.41,727.61a116.28,116.28,0,0,1-87,180.4ZM1154.11,483.06a51.69,51.69,0,0,0-43.39,30.8L753.9,1312.43a52.33,52.33,0,0,0,52.18,73.5l842.23-71a52.33,52.33,0,0,0,39.14-81.19L1202,506.16A51.65,51.65,0,0,0,1154.11,483.06Z"/><path class="cls-22" d="M1134.38,1224.66a76.81,76.81,0,0,1,3.28-30.59,70.48,70.48,0,0,1,14.41-25.31,75.54,75.54,0,0,1,24.2-17.94q14.42-6.93,33.13-8.51a96.67,96.67,0,0,1,34.35,2.82,75.26,75.26,0,0,1,27.11,13.62,70.68,70.68,0,0,1,18.44,22.54,77.1,77.1,0,0,1,8.35,29.61,75.43,75.43,0,0,1-3.3,30.34,71.1,71.1,0,0,1-14.43,25.07,75.08,75.08,0,0,1-24.45,18,96.51,96.51,0,0,1-33.39,8.53q-18.7,1.58-34.09-2.85a75.45,75.45,0,0,1-26.86-13.64,71.06,71.06,0,0,1-18.42-22.29A75.19,75.19,0,0,1,1134.38,1224.66Zm130.21-152.37-121.32,10.22-52.11-413.07,155.69-13.12Z"/><path class="cls-6" d="M611.38,1097.62s2.65-5.94,4.36-8.75,9-11,10.26-9.19,6.22,14.42,3.57,17.94.17,9.63-13,13.34Z"/><path class="cls-15" d="M465.31,1060.12s67.29,56.16,93.53,51c20.51-4.06,52.95-14.35,52.95-14.35s8.56,8.14,6.14,17.9c0,0-41.33,38.88-70.77,39.14-46,.39-67.72-22.81-67.72-22.81Z"/><path class="cls-24" d="M347.3,1652.56s2,31.51,8.05,32c.81.06,30.92.06,30.92.06l38.44-.22s-.25-9.26-11.49-11.22-30-9.85-36.84-24.7C369.22,1632.82,347.3,1652.56,347.3,1652.56Z"/><path class="cls-9" d="M345.09,1654.75s11.68,3.91,20.8,3.91a76.47,76.47,0,0,0,19.43-2.77s2.2-21.28,14.3-68.15c6.35-24.56,15.41-56.15,28.31-95.4,35.65-108.48,46.49-171.94,47.48-177.95,0-.32.07-.48.07-.48l-.11-.05-109.61-48.12s13.55,149.51-3.74,206.89a242.19,242.19,0,0,0-6.27,27.5C344.84,1562.46,345.09,1654.75,345.09,1654.75Z"/><path class="cls-10" d="M399.62,1587.74c6.35-24.56,15.41-56.15,28.31-95.4,35.65-108.48,46.49-171.94,47.48-177.95,0-.18,0-.35,0-.53l-109.61-48.12s13.55,149.51-3.74,206.89C359.6,1480.65,399.62,1587.74,399.62,1587.74Z"/><path class="cls-25" d="M432.91,1652.56s1.95,31.51,8,32c.81.06,30.92.06,30.92.06l38.44-.22s-.26-9.26-11.49-11.22-30-9.85-36.85-24.7C454.82,1632.82,432.91,1652.56,432.91,1652.56Z"/><path class="cls-9" d="M495.05,1269.26s1.43,96.88-15.34,215.84-11.08,169.45-11.08,169.45-11.51,3.73-16.16,4.11c-11.84,1-24-2.78-24-2.78s-24-119-17.12-178.54S378.52,1273,378.52,1273Z"/><path class="cls-6" d="M417.33,1042.54l21.4,14,19.49-5.51c3.56-5.08,4.5-14.88,4.56-23.37a145.26,145.26,0,0,0-.77-15.56l-28.87-12.74-10.77-4.74c0,.17.84,8.84,1,10.11C425.34,1027.25,417.33,1042.54,417.33,1042.54Z"/><path class="cls-14" d="M495.54,1296.19c-26.63,25.72-127.41,21.39-133.62-6.94s6.77-241.15,52.26-254.52c9.44-2.77,59.91,13.54,59.91,13.54a319.4,319.4,0,0,1,13.11,47.09c1,5.13,3.95,59.52,6.15,110.4,1,23.79,1.9,46.83,2.34,63.7C496.1,1285.25,496.12,1295.63,495.54,1296.19Z"/><path class="cls-26" d="M425.49,1005.16c5.85,9.9,26.4,18.56,37.29,22.53a145.26,145.26,0,0,0-.77-15.56l-28.87-12.74C426.76,999.31,422.88,1000.74,425.49,1005.16Z"/><path class="cls-6" d="M472.9,1010.38s-46.51,14.51-55.1-14.6-20.38-46.83,8.95-57.32,38.41-1.1,43.64,7.92S484.78,1005.85,472.9,1010.38Z"/><path class="cls-27" d="M468.56,943.57s-3,33.87-10,32.4-14.71-4.62-13.68,5.59-6.81,27.71-16.91,27.67c-21.66-.09-45.2-55.67-39.27-66.21C405.84,912.61,493.29,906.47,468.56,943.57Z"/><path class="cls-15" d="M461.72,1035.46c-.6-.25-34.62-15.51-38.6-14.2s-8.94,13.47-8.94,13.47l59.91,13.54S469.37,1038.69,461.72,1035.46Z"/><path class="cls-28" d="M673.54,1200.29,482.82,1379.85c-3.74,3.52-8.46,4.64-10.48,2.5l-6.44-6.84c-2-2.15-.62-6.79,3.12-10.31l190.72-179.57c3.74-3.51,8.46-4.64,10.48-2.49l6.44,6.84C678.68,1192.13,677.28,1196.77,673.54,1200.29Z"/><path class="cls-7" d="M566.51,1301.06l-83.69,78.79c-3.74,3.52-8.46,4.64-10.48,2.5l-6.44-6.84c-2-2.15-.62-6.79,3.12-10.31l83.69-78.8Z"/><path class="cls-28" d="M629.7,1132.49A149.49,149.49,0,1,0,877.47,982.26c-.76-.76-1.55-1.52-2.34-2.26A149.5,149.5,0,0,0,629.7,1132.49Zm42.73-138a137.7,137.7,0,1,1,5.93,194.63A137.53,137.53,0,0,1,672.43,994.52Z"/><g class="cls-29"><path class="cls-30" d="M873,1183.21a137.7,137.7,0,1,1-5.93-194.62A137.15,137.15,0,0,1,873,1183.21Z"/></g><path class="cls-15" d="M495.69,1269.46c-105.09-74.89-96.35-174.81-96.35-174.81,38.41,21.66,76.53,69.56,94,111.11C494.38,1229.55,495.25,1252.59,495.69,1269.46Z"/><path class="cls-6" d="M599.41,1235.35c7.41-1.71,12.39-7.31,13.42-8.29,0,0,3.16.22-.51,7-.31.56-1,2-1.51,3a.65.65,0,0,0,.55.94c4.28.32,8.57-1.37,16.81.35,1.14.24,1.47,3,1.43,4.12a10.59,10.59,0,0,1-2.22,7.18c-1.32,1.75-5,3.63-13.28,6.95-3.14,1.27-12.12.31-20.54-2.58l-6.73-3.12,2.08-12.5,1.7.35C593.29,1239.32,596.61,1236,599.41,1235.35Z"/><path class="cls-14" d="M432,1048.27s-94.43,18,27.78,154.72c19.54,21.87,125.14,50.35,125.14,50.35s10.71-9.12,5.31-16.5c0,0-72.71-52.79-88.71-61.18-7.19-3.78-27.93-84.27-39.66-103.66S432,1048.27,432,1048.27Z"/><path class="cls-6" d="M613.94,1099.28s3.09-5.9,3.7-9,4.49-12.19,6.09-13.79c.64-.64,2.76.19,3,2.94a16.15,16.15,0,0,1-1.52,6c-1.69,4.23-1.41,10-2,11.87C621.76,1102,613.94,1099.28,613.94,1099.28Z"/><path class="cls-6" d="M651.52,865a5.69,5.69,0,0,0-1,6.09,0,0,0,0,0,0,0c1.47,4.06,6.32,8.6,12,13.13.72.58,1.36,1.11,1.92,1.6l.43.39.33.29c5.26,4.85,3.28,6,12.72,15.8,10.77,11.21,18.19,11.42,20.3,10.4,1.78-.87-1.84-6.82-5.86-13.5-.19-.32-.38-.65-.58-1-.54-.89-1.07-1.79-1.6-2.69-4.71-8-3.5-11.81-2.38-23.78.91-9.72,15.15-54.32,15.15-54.32l-20.64-3.56s-6.23,35.51-13.08,41c-3.66,2.91-7.76,3-11.28,5.11-.25.15-.5.3-.74.46A27.4,27.4,0,0,0,651.52,865Z"/><path class="cls-10" d="M651.52,865a5.69,5.69,0,0,0-1,6.09,0,0,0,0,0,0,0c1.8,4.06,6.53,8.57,12,13.09.71.59,1.34,1.13,1.9,1.64l.43.39.33.29c5.26,4.85,3.28,6,12.72,15.8,10.77,11.21,18.19,11.42,20.3,10.4,1.78-.87-1.84-6.82-5.86-13.5a46,46,0,0,1-19.2-14.15c-6.24-8-10.48-18.15-14.73-24.39l-1.22-.23A27.4,27.4,0,0,0,651.52,865Z"/><path class="cls-6" d="M818,852.16c1.27,6.38,10.35,5.32,20.5,2.84s7.73.47,22.18-1.12,18.82-7,19.26-9.13c.39-1.9-6.74-2.58-14.4-3.46l-2.89-.35c-8.64-1.09-15-6.66-22.82-11.25-7.43-4.34-18.52-22-18.52-22l-19.81,1.56s10.39,15.79,14.41,22.65c2.36,4,2.23,9.38,1.94,13.5A24.78,24.78,0,0,0,818,852.16Z"/><path class="cls-10" d="M838.48,855c10.15-2.47,7.73.47,22.18-1.12s18.82-7,19.26-9.13c.39-1.9-6.74-2.58-14.4-3.46l-.07.15a40.77,40.77,0,0,1-20.68,6.42c-9.8.23-20.18-2.58-26.94-2.47a24.78,24.78,0,0,0,.15,6.77C819.25,858.54,828.33,857.48,838.48,855Z"/><path class="cls-10" d="M742.12,725.5l-18.53,49.81-24.2,65a39.31,39.31,0,0,1-12.84-1.17c-5.78-1.68-12.42-6-12.42-6s6.74-69.85,19.27-109.94c3.22-10.29,6.82-18.61,10.79-23.3C723.6,677,742.12,725.5,742.12,725.5Z"/><path class="cls-9" d="M723.32,646.37c-10.54-3.41-38-.07-67.86,5.32a20.23,20.23,0,0,1-20.89-9.44h0l-75.06-5.89s-24.79,54.92-11.24,89.93c2,5.14,6.36,8.35,13.11,8.46h0s45.36.08,59.87.09c37.33,0,79-25.64,84.4-26.71,8.83-1.76,12.35,15.89,21.17,34.42s82.91,82.09,82.91,82.09,11.4.12,16.1-1.65c5.06-1.89,6.92-4.36,6.92-4.36S750.67,655.2,723.32,646.37Z"/><path class="cls-10" d="M626.67,421.82a26.68,26.68,0,0,0-14.34-3.74,39.11,39.11,0,0,1-6.92-.42c-28.65-4.21-45.91,37.4-46.93,50-1.86,23.09-14.08,26.6-31.27,41.05-34.48,29-24.38,62.67-5.54,75.19,11.31,7.51,31.24,0,31.24,0,.28.19,54.52-30.3,81.25-45C674.24,533.19,642.77,431.41,626.67,421.82Z"/><path class="cls-6" d="M611.76,526.34c.12.08-13.15,4.6-22,.67-8.35-3.69-14.67-17.43-14.54-17.44,3.8-.17,8-3.49,11.18-25.27l1.62.58,27.18,9.79s-2,8.73-3.25,17C610.86,518.67,610.28,525.35,611.76,526.34Z"/><path class="cls-31" d="M615.18,494.67s-1.08,4.71-2.67,13.5c-15.61-2.82-22.31-14.85-24.51-23.29Z"/><path class="cls-6" d="M619.23,503.33s-37.2-5-33.72-28.12,1-39.32,24.9-37.11,27.18,11.73,27.89,19.73S629,504,619.23,503.33Z"/><path class="cls-10" d="M637,445.16s-23.82,20.51-40,22.16-22.33-3.55-22.33-3.55a63.21,63.21,0,0,0,15.3-20.71,11.37,11.37,0,0,1,9.39-6.71C610.87,435.35,632.79,434.9,637,445.16Z"/><path class="cls-10" d="M622.07,443.32s8,7.7,10.47,13.42c2.42,5.51,3.14,18.69,1.21,23.93,0,0,12.42-24.13,5.4-35.86C631.7,432.38,622.07,443.32,622.07,443.32Z"/><path class="cls-14" d="M643.06,581.14c-1.15,75.29-.32,59.56-8.56,66.7-2,1.72-7.57,2.74-14.91,3.23-23.09,1.52-63.67-2.3-65.21-6.56-5.32-14.77-1.56-19.35-6-42-.46-2.4-1-5-1.7-7.84-3.7-15.52-7.31-20.8,5.85-45.74,11.92-22.58,24.31-40.92,25.42-40.25,31.44,18.67,34,3,34,3S643.63,544.42,643.06,581.14Z"/><path class="cls-9" d="M723.59,775.31l-24.2,65a39.31,39.31,0,0,1-12.84-1.17c-5.78-1.68-12.42-6-12.42-6s6.74-69.85,19.27-109.94Z"/><path class="cls-14" d="M611.93,511.7s32.36,5.5,36.15,19.43,16.27,98.49,16.27,98.49-9.12,8.91-16.72,1.31-23.89-79.13-23.89-79.13Z"/><path class="cls-15" d="M619.59,651.07c-23.09,1.52-63.67-2.3-65.21-6.56-5.32-14.77-1.56-19.35-6-42l11.15-31.35s-1.85,34.92,8.44,44.11,42.16,17.74,47.16,25.41A28.15,28.15,0,0,1,619.59,651.07Z"/><path class="cls-6" d="M593.14,636.37s22.78-5.06,26.46-3,12.65,9.39,13.77,11.95-8.18-1.95-11.2-2.76c-2-.53-7.13,1.26-9.68,2.12-10.75,3.58-17.34,1.73-17.34,1.73Z"/><path class="cls-14" d="M577.93,508.7s-30.58,1.87-41.17,16.64c-14.91,20.78-44.51,109.35-27.57,121.17C528.27,659.83,596,650,596,650s2.26-10.53-.87-15.63S541,621,538.69,618.68s29.43-45.88,29.43-52.94S577.93,508.7,577.93,508.7Z"/><path class="cls-6" d="M620.7,639.67s4.77,6.16,6.33,6.89a4.7,4.7,0,0,0,2.58.56l-3.22-5.79Z"/><path class="cls-6" d="M619.6,633.33l13.87,6.74a2.47,2.47,0,0,1-2.3.89,33.33,33.33,0,0,1-6-1.65Z"/><polygon class="cls-10" points="738.08 649.21 593.14 649.16 593.14 652.36 736.79 652.41 738.08 649.21"/><polygon class="cls-10" points="627.03 652.37 736.79 652.41 769.83 570.32 660.24 570.28 627.03 652.37"/><path class="cls-32" d="M709.1,611.35c.82-2.89-.84-5.23-3.73-5.23a7.49,7.49,0,0,0-6.73,5.23c-.83,2.88.84,5.22,3.73,5.22A7.51,7.51,0,0,0,709.1,611.35Z"/><path class="cls-27" d="M1451.91,962c-14.79-4.91-25,1.29-25,1.29-42.58,1.75-44.16,45.39-39.16,61.63,7,22.8-17.82,40.79,9.73,50,32,10.71,58.78-2,57,3.52C1555.47,1086.41,1485.54,973.16,1451.91,962Z"/><path class="cls-14" d="M1407.75,1174.23a111.41,111.41,0,0,1-11.38,17.22c-8.84,11.07-55.26-15.22-51.26-17.22s27.32-69.19,32.87-77.64,24.49-12.83,24.49-12.83Z"/><path class="cls-33" d="M1564.39,1627.44s12.81,11.69,10.31,20-14.06,13.84-15.62,24-7.81,15.69-13.44,15.69h-26.81s-4.14-7.15,5.86-9.3,13.77-14.09,13.14-25.16.94-25.85.94-25.85l21.25-4.92Z"/><path class="cls-8" d="M1456,1632.4s4.61,49.53-1,52.3l-72-.15s0-8.3,11.56-10.15,31.88-8.61,35.31-23.69S1456,1632.4,1456,1632.4Z"/><path class="cls-14" d="M1511.33,1140.82a287.45,287.45,0,0,1,0,33.27c-.71,12-12.88,28.15-14.61,32.13-4.33,10-9.21,11.62-9.21,11.62l-37.8,9.27-13.29,3.25-41.9-12.52s-19.09-53.27-11.42-83.26,19.37-50.82,19.37-50.82,28.48-6.4,78.72-2.83Z"/><path class="cls-15" d="M1514.93,1174.51c-.71,12-16.48,27.73-18.21,31.71-4.33,10-9.21,11.62-9.21,11.62l-37.8,9.27-6.82-19.56s55.22-14.51,46.34-65.62Z"/><path class="cls-10" d="M1397.18,1225.93s-20.75,64.59-22.08,86.59,39.67,312.42,41.32,322.55c1.55,9.55,13.41,15.64,13.41,15.64a17.94,17.94,0,0,0,13.24,1c10.81-3,14.22-6.7,14.22-6.7s16.15-207.13,6.16-281.12a1171.88,1171.88,0,0,1-10.12-138Z"/><path class="cls-9" d="M1485.11,1224s31.65,42.48,34.6,71.19,4.63,129.56,10.92,157.55S1560,1534.6,1560,1621.9c0,0-2.4,5-9.82,7.67a81.54,81.54,0,0,1-8.63,2.39,13.58,13.58,0,0,1-15.18-7.21c-15.61-31.44-65.36-132.86-67.91-153.91-1.81-14.9-17.51-113.5-51.78-171.35-8.22-13.89,5-69.13,5-69.13Z"/><path class="cls-10" d="M1393.87,1216s8.33,6.59,24.88,6.92c19.77.4,68.75-5,68.75-5a40.42,40.42,0,0,1,2.09,12.5s-59.83,15.09-94.49,2.21C1395.1,1232.55,1390.63,1224.14,1393.87,1216Z"/><path class="cls-32" d="M1414,1239.92c-5,0-9-4.58-9-10.21s4-10.21,9-10.21,9,4.58,9,10.21S1419,1239.92,1414,1239.92Zm0-17.43c-3.33,0-6,3.24-6,7.22s2.7,7.22,6,7.22,6-3.24,6-7.22S1417.33,1222.49,1414,1222.49Z"/><polygon class="cls-34" points="1457.23 1258.49 1367.31 1259.33 1323.06 1155.34 1412.98 1154.5 1457.23 1258.49"/><path class="cls-6" d="M1445.47,1211.5l-6.59-8.1s-4.46-4-7.7-4.66-10.07-4.61-10.73-3.5,5.25,9,5.25,9l.3,0c-6.79,5.11-23.93.6-26,2.68-2.56,2.53,3.53,8,6.8,11s12.62,8.18,19.91,5.91c5.33-1.66,13.71-3.35,13.71-3.35Z"/><path class="cls-6" d="M1329.82,1173.64s5.66-6.43,9.25-3.34-.94,18.23-4.36,16.69S1327.86,1175.52,1329.82,1173.64Z"/><path class="cls-14" d="M1481.19,1080.93s25.74,2.83,44.21,36.4c14.57,26.47,39.47,75.26,30.07,89-4.12,6.05-43.66,27.58-119.94,15.28,0,0,1.2-9.64,7.36-14.1,0,0,64.18-20.61,64.08-24.71-.21-7.75-8.68-14.45-44.53-50.32C1452.69,1122.77,1481.19,1080.93,1481.19,1080.93Z"/><path class="cls-6" d="M1461.38,1082.29c.88-1.19-.26-5-1.67-12-1.28-6.38-3.45-16.25-3.41-27.35l-1.89.32-31.91,5.36s.73,8.53.75,16.57v.2c0,7-1.88,17.53.47,18.9C1435.81,1091.37,1458,1086.85,1461.38,1082.29Z"/><path class="cls-35" d="M1422.5,1048.61s.64,12,.66,20.07c17.85-.43,27.38-17.77,31.25-25.43Z"/><path class="cls-6" d="M1420.58,1063s41.82-6,37.71-32-1.48-44.26-28.36-41.55-30.48,13.44-31.22,22.45S1409.59,1063.84,1420.58,1063Z"/><path class="cls-27" d="M1410.83,991.85s16.28,28.66,34.52,30.38,25.1-4.2,25.1-4.2a50.22,50.22,0,0,1-20.9-26.73S1417.14,976,1410.83,991.85Z"/><path class="cls-27" d="M1414.06,993.87s-8,4.52-10.47,11.25a42.46,42.46,0,0,0-1.84,24.75s-11.9-19.35-4.1-32.61C1405.92,983.2,1414.06,993.87,1414.06,993.87Z"/><rect class="cls-10" x="14.25" y="1683.39" width="2324.14" height="7.47" rx="2.9"/></g></g></svg>