<svg xmlns="http://www.w3.org/2000/svg" viewBox="0 0 200 26.4"><defs><style>.cls-1{fill:#6200ea;}</style></defs><g id="Layer_2" data-name="Layer 2"><g id="Layer_1-2" data-name="Layer 1"><path class="cls-1" d="M15.2,21.3v4.8H0V.3H5.9v21Z"/><path class="cls-1" d="M44.2,13.2a15.38,15.38,0,0,1-.9,5.2,11.66,11.66,0,0,1-2.7,4.2,12.48,12.48,0,0,1-4.1,2.8,15.44,15.44,0,0,1-10.8,0,11.91,11.91,0,0,1-4.2-2.8,11.66,11.66,0,0,1-2.7-4.2,13.27,13.27,0,0,1-.9-5.2A15.38,15.38,0,0,1,18.8,8a11.66,11.66,0,0,1,2.7-4.2A14.22,14.22,0,0,1,25.6,1,14,14,0,0,1,31,0a14.36,14.36,0,0,1,5.4,1,10.71,10.71,0,0,1,4.1,2.8A11.66,11.66,0,0,1,43.2,8,13.37,13.37,0,0,1,44.2,13.2Zm-6,0a9.67,9.67,0,0,0-.5-3.4,9.39,9.39,0,0,0-1.4-2.6,5.67,5.67,0,0,0-2.2-1.6,8,8,0,0,0-3-.6,7.65,7.65,0,0,0-3,.6,6,6,0,0,0-2.2,1.6,8.16,8.16,0,0,0-1.4,2.6,13.32,13.32,0,0,0-.5,3.4,10.6,10.6,0,0,0,.5,3.5,9.39,9.39,0,0,0,1.4,2.6,5.67,5.67,0,0,0,2.2,1.6,8,8,0,0,0,3,.6,7.65,7.65,0,0,0,3-.6,6,6,0,0,0,2.2-1.6,8.16,8.16,0,0,0,1.4-2.6,14.08,14.08,0,0,0,.5-3.5Z"/><path class="cls-1" d="M71.5.3V26.1H68.4a3.59,3.59,0,0,1-1.1-.2,1.76,1.76,0,0,1-.9-.8L54.5,9.7c0,.5.1.9.1,1.3V26H49.4V.3h3.7c.2,0,.3.1.5.1s.3.2.4.3a1,1,0,0,1,.4.5L66.5,16.7a7.08,7.08,0,0,1-.1-1.4V.3Z"/><path class="cls-1" d="M90.3,12.7h9V23.6a13.29,13.29,0,0,1-4.1,2.1,17.66,17.66,0,0,1-4.6.7,15.93,15.93,0,0,1-5.7-1,13.71,13.71,0,0,1-4.4-2.8,11.91,11.91,0,0,1-2.8-4.2,13.37,13.37,0,0,1-1-5.2,16,16,0,0,1,.9-5.3A11.75,11.75,0,0,1,84.5,1,14.87,14.87,0,0,1,90,0a15.26,15.26,0,0,1,3,.3,25,25,0,0,1,2.6.7,10.34,10.34,0,0,1,2.1,1.1,11.51,11.51,0,0,1,1.7,1.4L97.7,6.1a2.18,2.18,0,0,1-.4.5l-.6.3H96a3.33,3.33,0,0,1-.6-.3c-.5-.3-.9-.5-1.3-.7a5,5,0,0,0-1.3-.5c-.4-.1-.9-.2-1.4-.3A8.6,8.6,0,0,0,89.8,5a8,8,0,0,0-3,.6,7.64,7.64,0,0,0-2.3,1.7,8.16,8.16,0,0,0-1.4,2.6,12.7,12.7,0,0,0-.5,3.4,10.88,10.88,0,0,0,.6,3.6,7.44,7.44,0,0,0,1.6,2.7,8.07,8.07,0,0,0,2.4,1.7,8.53,8.53,0,0,0,3.1.6,12.25,12.25,0,0,0,1.9-.2,5.78,5.78,0,0,0,1.7-.6V17.2H91.4a1.61,1.61,0,0,1-.9-.3c-.1-.1-.2-.2-.2-.3a.6.6,0,0,1-.1-.4Z"/><path class="cls-1" d="M118.5,4.7a1.38,1.38,0,0,1-.3.4.6.6,0,0,1-.4.1.91.91,0,0,1-.7-.3c-.3-.2-.6-.4-1-.7a9.14,9.14,0,0,0-1.4-.7,6.82,6.82,0,0,0-4,0,6.38,6.38,0,0,0-1.4.8,3.45,3.45,0,0,0-.9,1.2,4,4,0,0,0-.3,1.5,4.07,4.07,0,0,0,.5,1.8A4.07,4.07,0,0,0,110,10c.6.3,1.2.6,1.9.9l2.2.8c.7.3,1.5.6,2.2.9a7.61,7.61,0,0,1,1.9,1.2,6.23,6.23,0,0,1,1.4,1.8,5.92,5.92,0,0,1,.5,2.7,8.15,8.15,0,0,1-.6,3.1,7.16,7.16,0,0,1-1.6,2.5,7.82,7.82,0,0,1-2.6,1.7,10.3,10.3,0,0,1-3.5.6,11.17,11.17,0,0,1-4.4-.9,11.65,11.65,0,0,1-3.4-2.4l1-1.6.3-.3a.6.6,0,0,1,.4-.1.76.76,0,0,1,.5.2c.2.1.4.3.7.5a5.55,5.55,0,0,0,.8.6,10.91,10.91,0,0,0,1.1.6,5.78,5.78,0,0,0,1.4.5,9.85,9.85,0,0,0,1.7.2,7.11,7.11,0,0,0,2.1-.3,5.07,5.07,0,0,0,1.6-.9,4,4,0,0,0,1-1.5,4,4,0,0,0,.3-1.9,3.2,3.2,0,0,0-.5-1.9,4.89,4.89,0,0,0-1.3-1.2,6.39,6.39,0,0,0-1.9-.8c-.7-.2-1.4-.5-2.2-.7a19.45,19.45,0,0,1-2.2-.8,7.61,7.61,0,0,1-1.9-1.2,5,5,0,0,1-1.3-1.9,6.92,6.92,0,0,1-.5-2.8,7.51,7.51,0,0,1,.5-2.6,5.41,5.41,0,0,1,1.5-2.2,7.76,7.76,0,0,1,2.4-1.6,9.6,9.6,0,0,1,3.3-.6,9.86,9.86,0,0,1,3.8.7,8.53,8.53,0,0,1,3,1.9Z"/><path class="cls-1" d="M146.6.7V26h-3.4V14.5H129.8V26h-3.4V.7h3.4V12h13.4V.7Z"/><path class="cls-1" d="M177.7,13.4a15,15,0,0,1-.9,5.2,13.29,13.29,0,0,1-2.5,4.1,10.54,10.54,0,0,1-3.9,2.7,13.31,13.31,0,0,1-10,0,10.54,10.54,0,0,1-3.9-2.7,11.62,11.62,0,0,1-2.5-4.1,15.38,15.38,0,0,1-.9-5.2,15,15,0,0,1,.9-5.2,13.29,13.29,0,0,1,2.5-4.1,10.54,10.54,0,0,1,3.9-2.7,13.31,13.31,0,0,1,10,0,10.54,10.54,0,0,1,3.9,2.7,11.62,11.62,0,0,1,2.5,4.1A15.38,15.38,0,0,1,177.7,13.4Zm-3.5,0a15.23,15.23,0,0,0-.6-4.2,8.72,8.72,0,0,0-1.8-3.1,8,8,0,0,0-2.8-2,10.21,10.21,0,0,0-7.3,0,6.9,6.9,0,0,0-2.8,2,9.68,9.68,0,0,0-1.8,3.1,15,15,0,0,0,0,8.4,8.72,8.72,0,0,0,1.8,3.1,8,8,0,0,0,2.8,2,10.21,10.21,0,0,0,7.3,0,6.9,6.9,0,0,0,2.8-2,9.68,9.68,0,0,0,1.8-3.1A10.21,10.21,0,0,0,174.2,13.4Z"/><path class="cls-1" d="M200,3.6h-8.1V26.1h-3.4V3.6h-8.1V.7H200Z"/></g></g></svg>