<svg xmlns="http://www.w3.org/2000/svg" viewBox="0 0 46.4 37.9"><defs><style>.cls-1{fill:#6200ea;}</style></defs><g id="Layer_2" data-name="Layer 2"><g id="Layer_1-2" data-name="Layer 1"><path class="cls-1" d="M8.1,7.4a.9.9,0,0,1,.1-.5c.1-.1.2-.3.3-.4a1.38,1.38,0,0,1,.4-.3.9.9,0,0,1,.5-.1H23.1a1.22,1.22,0,0,1,.9.4,1.27,1.27,0,0,1,.4.9,1.22,1.22,0,0,1-.4.9,1.27,1.27,0,0,1-.9.4H9.4a.9.9,0,0,1-.5-.1c-.1-.1-.3-.2-.4-.3s-.2-.3-.3-.4A4.33,4.33,0,0,0,8.1,7.4ZM39.5,20.8H9.4a1.22,1.22,0,0,0-.9.4,1,1,0,0,0-.4.8,1.22,1.22,0,0,0,.4.9,1.09,1.09,0,0,0,.9.4H39.6a1.22,1.22,0,0,0,.9-.4,1.09,1.09,0,0,0,.4-.9,1.22,1.22,0,0,0-.4-.9A1.21,1.21,0,0,0,39.5,20.8Zm0,7.3H9.4a1.22,1.22,0,0,0-.9.4,1.23,1.23,0,0,0-.4.8,1.22,1.22,0,0,0,.4.9,1.27,1.27,0,0,0,.9.4H39.6a1.22,1.22,0,0,0,.9-.4,1.27,1.27,0,0,0,.4-.9,1.22,1.22,0,0,0-.4-.9A1.69,1.69,0,0,0,39.5,28.1ZM23,35.4H9.4a1.22,1.22,0,0,0-.9.4,1,1,0,0,0-.4.8,1.22,1.22,0,0,0,.4.9,1.09,1.09,0,0,0,.9.4H23.1a1.22,1.22,0,0,0,.9-.4,1.27,1.27,0,0,0,.4-.9,1.22,1.22,0,0,0-.4-.9,1.93,1.93,0,0,0-1-.3ZM46.3,1.1c-.2,1.5-1.1,4.6-5.2,8.2-.7.6-1.4,1.1-2.1,1.6l-.9,2.9a.1.1,0,0,1-.1.1l-2.6,1.9h-.3v-.1l-.7-3a4.4,4.4,0,0,1-1.6-.2l-4.1,3.1a1.14,1.14,0,0,1-.8.3H9.6L6.1,17.6v.1a2.64,2.64,0,0,1-.7,1.9,3.37,3.37,0,0,1-1.7,1.1,2.75,2.75,0,0,1-2-.2A3.16,3.16,0,0,1,.3,19.1a2.75,2.75,0,0,1-.2-2,2.91,2.91,0,0,1,1.2-1.8,3.08,3.08,0,0,1,1.9-.6,3.41,3.41,0,0,1,1.9.7l3.8-1.8a.9.9,0,0,1,.5-.1H27.8l3.7-2.8a2.05,2.05,0,0,1,0-1.1L28.6,8.3l-.1-.1V8a.1.1,0,0,1,.1-.1l2.3-2.2H31l2.9-.4a12.88,12.88,0,0,1,1.7-1.6C41.9-1.1,46.1.1,46.3.2a.1.1,0,0,1,.1.1V.4A1.7,1.7,0,0,1,46.3,1.1ZM40.5,6.2a1.61,1.61,0,0,0-.3-.9,1.34,1.34,0,0,0-.7-.6,2.92,2.92,0,0,0-.9-.2,1.8,1.8,0,0,0-.9.4,1.56,1.56,0,0,0-.6.8,3.08,3.08,0,0,0-.1,1,3.55,3.55,0,0,0,.4.9,2.18,2.18,0,0,0,.8.5,1.1,1.1,0,0,0,.8,0c.3-.1.5-.2.8-.3a2.65,2.65,0,0,0,.5-.6,2,2,0,0,0,.2-1Z"/></g></g></svg>